<svg version="1.1" id="Layer_1" xmlns="http://www.w3.org/2000/svg" xmlns:xlink="http://www.w3.org/1999/xlink" x="0px" y="0px"
	 width="100%" viewBox="0 0 1024 1024" enable-background="new 0 0 1024 1024" xml:space="preserve">
<path fill="#FDFDFD" opacity="1.000000" stroke="none" 
	d="
M671.000000,1025.000000 
	C447.333344,1025.000000 224.166672,1025.000000 1.000000,1025.000000 
	C1.000000,683.666687 1.000000,342.333344 1.000000,1.000000 
	C342.333344,1.000000 683.666687,1.000000 1025.000000,1.000000 
	C1025.000000,342.333344 1025.000000,683.666687 1025.000000,1025.000000 
	C907.166687,1025.000000 789.333313,1025.000000 671.000000,1025.000000 
M793.126953,344.178833 
	C793.100098,342.783112 793.073303,341.387421 793.103516,339.074371 
	C793.189636,327.971100 790.757812,317.355255 786.863770,306.277222 
	C782.142517,293.777832 776.403748,281.871307 766.706421,271.488983 
	C761.167297,266.239807 755.628174,260.990631 749.895203,255.115326 
	C727.965332,236.829880 702.193481,229.251694 674.194397,229.197388 
	C566.594055,228.988724 458.992157,228.917252 351.393311,229.376328 
	C338.469116,229.431458 325.022461,231.372665 312.746796,235.324783 
	C278.587616,246.322205 254.664047,269.335754 240.468338,302.302216 
	C234.611023,315.904541 232.086136,330.215912 232.141724,345.931702 
	C232.192245,350.294830 232.242783,354.657990 232.149567,359.944489 
	C232.190369,379.637238 232.231155,399.330017 232.140213,419.947662 
	C232.195251,437.301575 232.250275,454.655487 232.137863,472.931152 
	C232.192825,478.284180 232.247787,483.637177 232.144333,489.879059 
	C232.187912,492.591583 232.231476,495.304077 232.137161,498.941498 
	C232.117737,516.880554 232.067215,534.819702 232.086670,552.758667 
	C232.111359,575.511108 232.192886,598.263611 232.126205,621.668152 
	C232.168182,622.106628 232.210159,622.545105 232.109482,623.876282 
	C232.158524,626.591125 232.207565,629.306030 232.120911,632.945862 
	C232.473282,650.744690 231.146912,668.770752 233.519470,686.296082 
	C238.838013,725.582520 260.529327,754.326050 295.299744,773.014221 
	C312.301239,782.151978 330.789032,786.013367 350.071014,786.015991 
	C458.844391,786.030823 567.617798,786.049866 676.391174,786.004822 
	C681.365601,786.002747 686.382874,785.707642 691.307312,785.024109 
	C732.538513,779.300049 762.695007,757.732971 782.018433,720.995789 
	C790.732727,704.428406 793.717224,686.450500 793.813049,667.958801 
	C793.959778,639.641907 793.844543,611.323608 793.813721,583.005920 
	C793.811951,581.352905 793.571655,579.700073 793.725647,577.134583 
	C793.762390,556.690979 793.834961,536.247253 793.815613,515.803711 
	C793.809143,509.010620 793.509399,502.218201 793.447815,495.424530 
	C793.386292,488.633026 793.454895,481.840332 793.744812,474.134033 
	C793.668945,468.082062 793.593079,462.030090 793.754517,455.073303 
	C793.679443,450.389984 793.604309,445.706696 793.753357,440.110565 
	C793.789856,423.192139 793.873108,406.273682 793.846375,389.355347 
	C793.828369,377.917725 793.655518,366.480347 793.785522,354.180969 
	C793.551453,351.126068 793.317444,348.071136 793.126953,344.178833 
z"/>
<path fill="#85B6FC" opacity="1.000000" stroke="none" 
	d="
M793.442322,578.047180 
	C793.571655,579.700073 793.811951,581.352905 793.813721,583.005920 
	C793.844543,611.323608 793.959778,639.641907 793.813049,667.958801 
	C793.717224,686.450500 790.732727,704.428406 782.018433,720.995789 
	C762.695007,757.732971 732.538513,779.300049 691.307312,785.024109 
	C686.382874,785.707642 681.365601,786.002747 676.391174,786.004822 
	C567.617798,786.049866 458.844391,786.030823 350.071014,786.015991 
	C330.789032,786.013367 312.301239,782.151978 295.299744,773.014221 
	C260.529327,754.326050 238.838013,725.582520 233.519470,686.296082 
	C231.146912,668.770752 232.473282,650.744690 232.533081,632.484131 
	C234.314255,632.862610 235.807510,633.553345 237.030594,634.569336 
	C242.145432,638.817993 247.785431,641.031189 254.533508,639.677368 
	C261.420502,638.295593 268.106842,638.617249 274.971558,640.680542 
	C280.161835,642.240540 285.801636,642.351929 291.260162,642.930969 
	C292.296997,643.040894 293.413147,642.288574 294.507935,641.989990 
	C297.006927,641.308289 299.480530,640.322266 302.026154,640.060730 
	C311.293274,639.108582 320.066589,641.299133 328.758728,644.744446 
	C328.617218,646.331177 328.478912,647.882019 328.328247,649.571472 
	C332.059326,650.087219 335.466064,650.755493 338.901733,650.978455 
	C342.460205,651.209167 346.056885,651.168579 349.617554,650.942627 
	C352.225037,650.777100 354.714752,650.273804 353.454803,646.347595 
	C353.222900,645.625000 355.305084,643.259216 356.377258,643.219482 
	C358.209808,643.151550 360.045013,644.606018 361.959045,644.899170 
	C364.086090,645.224976 367.264160,645.898010 368.319916,644.807739 
	C374.022766,638.918640 381.528534,639.404419 388.379150,639.237976 
	C398.092773,639.002014 407.837891,640.482483 417.583344,640.928772 
	C421.388214,641.103149 422.514771,642.482788 420.885803,645.808777 
	C418.961639,649.737610 421.742035,650.877625 424.418976,651.828796 
	C425.757599,652.304443 427.487396,652.325500 428.865814,651.935486 
	C436.342041,649.820496 443.820038,649.808838 451.474426,650.874451 
	C454.410675,651.283203 458.156464,651.113525 457.393219,646.037598 
	C457.289612,645.348633 458.255920,644.274048 458.986725,643.721985 
	C462.770782,640.863159 469.299500,641.588013 472.480560,645.114807 
	C475.623199,648.598999 479.046783,648.985229 482.993561,646.585632 
	C484.098236,645.914062 486.300476,645.183899 486.806671,645.685059 
	C491.055542,649.891968 493.951721,647.553345 497.330597,644.349854 
	C500.617065,641.233948 505.959167,642.852783 508.080231,646.868469 
	C508.746185,648.129150 510.185974,649.531250 511.493530,649.803833 
	C516.174255,650.779480 520.936401,651.418762 525.693298,651.961670 
	C532.624084,652.752502 538.415222,651.192810 542.148010,644.454590 
	C544.657959,639.923767 549.217712,638.646973 554.161743,639.097412 
	C555.590698,639.227661 557.006592,640.629822 558.334229,640.498230 
	C560.788574,640.255066 563.274536,639.533386 565.523376,638.515991 
	C566.169495,638.223633 566.047607,636.233521 566.277893,635.021851 
	C563.901123,634.836731 561.524719,634.647278 559.146912,634.477112 
	C559.002258,634.466736 558.851318,634.621826 558.695557,634.678345 
	C548.564148,638.353516 544.182678,635.655823 543.033813,624.853394 
	C542.673706,621.467041 541.603638,618.985596 538.223999,617.438354 
	C536.920837,616.841736 535.860291,614.716187 535.583679,613.131104 
	C535.242798,611.177917 535.727051,609.044617 536.048401,607.019897 
	C536.633301,603.333862 537.361084,599.670471 538.244934,596.300293 
	C538.642395,597.238586 538.824463,597.874146 539.006104,598.509888 
	C544.831909,618.895081 564.303284,633.586548 584.195984,632.621826 
	C592.516724,643.907898 602.446289,652.694885 614.779419,658.785645 
	C615.951782,659.364563 616.903259,662.091003 616.633362,663.580566 
	C615.720154,668.620239 614.210999,673.551941 612.477295,678.614868 
	C603.901245,678.766724 595.777466,678.871277 587.653687,678.871948 
	C583.733215,678.872253 581.844727,680.672302 581.878296,684.612061 
	C581.941895,692.069824 581.940613,699.528198 581.810486,707.256470 
	C581.476624,712.342529 584.239075,713.938721 588.569641,713.936951 
	C616.387756,713.925842 644.205872,713.953613 672.023987,713.921875 
	C677.081787,713.916077 678.901917,712.093262 678.990601,707.000610 
	C679.103760,700.505859 679.064331,694.008423 679.094177,687.512146 
	C679.130066,679.689453 678.135986,678.761169 669.541626,678.964905 
	C662.046875,678.778320 655.016357,678.665527 647.904968,678.193420 
	C646.626831,672.647888 645.202026,667.496887 644.389221,662.251099 
	C644.181091,660.907715 645.527222,658.545837 646.803406,657.872253 
	C657.719482,652.110352 667.125366,644.645752 674.713806,634.849487 
	C675.753052,633.507812 677.868225,632.238464 679.488098,632.234924 
	C688.107178,632.216003 695.834839,629.639282 702.993896,625.421997 
	C702.639709,629.472107 700.546021,631.386658 696.976257,632.029968 
	C692.084106,632.911499 687.218079,633.938416 681.210449,635.126587 
	C683.306396,636.458618 684.411682,637.668030 685.683838,637.880920 
	C690.888733,638.752319 696.139160,639.364868 701.383728,639.980103 
	C704.051636,640.293091 705.678894,639.432983 706.174377,636.347107 
	C706.845886,632.164368 709.611328,631.123108 713.501282,632.552429 
	C710.477600,640.579529 712.446228,642.851318 721.079346,642.100769 
	C724.342346,641.817078 727.816895,641.852905 730.936646,642.697449 
	C733.479553,643.385803 735.451111,644.259155 737.773621,642.249634 
	C738.488831,641.630859 740.907715,641.613098 741.144775,642.061523 
	C741.910278,643.509033 742.373901,645.325562 742.263000,646.952881 
	C742.190613,648.017090 740.921082,648.999756 739.467834,651.019592 
	C743.453552,651.375000 746.590332,652.209412 749.491028,651.699951 
	C751.162720,651.406372 753.593872,649.024048 753.710266,647.437134 
	C754.136353,641.630493 754.413818,641.155090 759.913940,642.845520 
	C767.603821,645.208984 776.620667,640.098450 778.741943,632.487915 
	C782.603821,618.632568 788.681763,605.186646 786.053894,590.207703 
	C785.947144,589.599304 786.191406,588.881348 786.420227,588.269836 
	C787.911926,584.284790 787.554810,579.013672 793.442322,578.047180 
z"/>
<path fill="#9FCDFC" opacity="1.000000" stroke="none" 
	d="
M766.963806,272.121124 
	C776.403748,281.871307 782.142517,293.777832 786.535583,306.714935 
	C782.374939,314.564484 778.906311,322.198639 774.566467,329.300415 
	C772.164917,333.230408 768.874146,337.650421 764.924438,339.278290 
	C761.686157,340.612976 756.882874,338.138245 752.769958,337.370148 
	C751.369324,337.108551 749.957214,336.908264 748.552246,336.669037 
	C743.896729,335.876099 739.223206,335.172546 734.593933,334.247528 
	C731.719482,333.673187 728.824097,331.889526 726.092529,332.167389 
	C718.776855,332.911469 711.359497,333.966614 706.815308,341.126556 
	C706.020691,342.378510 704.316040,343.427460 702.835815,343.807617 
	C694.585999,345.926392 686.950317,345.280701 679.893982,339.568268 
	C674.109741,334.885620 666.509583,334.188385 660.757080,338.110504 
	C655.097839,341.969086 650.328247,341.350067 645.014282,339.440704 
	C638.019470,336.927338 630.933350,336.473297 624.307190,339.568085 
	C618.613464,342.227386 614.954163,338.771515 610.521912,336.922913 
	C606.873718,335.401337 603.086060,333.712189 599.237000,333.326263 
	C595.922424,332.993958 592.409607,334.288879 589.027405,335.054108 
	C581.910095,336.664368 573.997681,335.665649 568.165466,341.669495 
	C567.300720,342.559753 565.052429,342.388092 563.480103,342.261383 
	C555.688293,341.633362 547.745911,338.749054 540.513245,344.553070 
	C539.551880,345.324524 537.610901,345.021088 536.130737,344.976624 
	C526.509277,344.687683 516.891174,344.240540 507.268250,344.099915 
	C505.844391,344.079071 504.400879,345.404327 502.596191,346.072113 
	C501.482758,346.016479 500.739563,345.995544 499.937164,345.625000 
	C492.356384,339.456451 483.532623,340.200165 474.810699,340.176117 
	C468.589844,340.158905 462.371155,339.721191 456.149017,339.594360 
	C453.235352,339.534973 448.928528,338.585785 447.653687,340.083374 
	C443.489899,344.974762 438.736542,344.907776 433.328186,344.059692 
	C431.914764,343.838043 430.359680,344.235870 428.914429,344.553131 
	C424.120728,345.605560 419.345581,347.658661 414.566681,347.649261 
	C407.287476,347.634918 400.019135,346.124603 392.725311,345.488556 
	C391.534515,345.384735 390.236572,346.510101 388.532013,347.088654 
	C384.730011,347.089935 381.384155,347.069855 377.806824,346.769196 
	C376.385162,346.322906 375.195038,346.157196 373.932129,345.619476 
	C372.103668,344.502930 370.399353,343.295868 368.583374,343.094147 
	C360.868652,342.237274 353.125153,341.621643 345.383240,341.035767 
	C341.757019,340.761322 338.104156,339.617310 335.142181,343.637146 
	C334.083191,345.074310 330.666595,344.900513 328.293030,345.199036 
	C326.670685,345.403076 324.874237,344.740082 323.356049,345.170868 
	C313.662964,347.921295 303.984009,350.738007 294.387054,353.803894 
	C289.538086,355.352997 284.958405,355.949768 279.936798,354.269196 
	C277.318359,353.392914 274.155670,353.678955 271.312469,354.032471 
	C264.941223,354.824524 258.629089,356.080627 252.268127,356.970764 
	C246.708099,357.748871 243.595139,354.440582 240.446899,350.336304 
	C238.585983,347.910278 235.078430,346.747314 232.311371,345.016357 
	C232.086136,330.215912 234.611023,315.904541 240.468338,302.302216 
	C254.664047,269.335754 278.587616,246.322205 312.746796,235.324783 
	C325.022461,231.372665 338.469116,229.431458 351.393311,229.376328 
	C458.992157,228.917252 566.594055,228.988724 674.194397,229.197388 
	C702.193481,229.251694 727.965332,236.829880 749.968201,255.850113 
	C751.112061,260.846283 751.889221,265.209686 753.325195,269.344269 
	C755.298157,275.024719 763.006653,276.454926 766.963806,272.121124 
z"/>
<path fill="#8CBCFC" opacity="1.000000" stroke="none" 
	d="
M793.583984,577.590881 
	C787.554810,579.013672 787.911926,584.284790 786.420227,588.269836 
	C786.191406,588.881348 785.947144,589.599304 786.053894,590.207703 
	C788.681763,605.186646 782.603821,618.632568 778.741943,632.487915 
	C776.620667,640.098450 767.603821,645.208984 759.913940,642.845520 
	C754.413818,641.155090 754.136353,641.630493 753.710266,647.437134 
	C753.593872,649.024048 751.162720,651.406372 749.491028,651.699951 
	C746.590332,652.209412 743.453552,651.375000 739.467834,651.019592 
	C740.921082,648.999756 742.190613,648.017090 742.263000,646.952881 
	C742.373901,645.325562 741.910278,643.509033 741.144775,642.061523 
	C740.907715,641.613098 738.488831,641.630859 737.773621,642.249634 
	C735.451111,644.259155 733.479553,643.385803 730.936646,642.697449 
	C727.816895,641.852905 724.342346,641.817078 721.079346,642.100769 
	C712.446228,642.851318 710.477600,640.579529 713.501282,632.552429 
	C709.611328,631.123108 706.845886,632.164368 706.174377,636.347107 
	C705.678894,639.432983 704.051636,640.293091 701.383728,639.980103 
	C696.139160,639.364868 690.888733,638.752319 685.683838,637.880920 
	C684.411682,637.668030 683.306396,636.458618 681.210449,635.126587 
	C687.218079,633.938416 692.084106,632.911499 696.976257,632.029968 
	C700.546021,631.386658 702.639709,629.472107 703.074341,625.308594 
	C703.160767,624.820190 703.434692,624.868286 703.856201,624.895386 
	C705.074402,624.159729 705.871094,623.396973 706.742065,622.669067 
	C706.816284,622.703979 706.718994,622.836182 707.033997,622.721924 
	C707.529114,622.210205 707.709290,621.812744 708.037720,621.161011 
	C709.167297,619.936340 710.148621,618.965881 711.444824,617.941650 
	C712.159058,617.220520 712.558289,616.553162 713.045288,615.582886 
	C714.294739,613.812500 715.456421,612.345154 717.002441,610.885986 
	C719.785706,610.151367 721.115784,609.077087 718.718689,606.456543 
	C723.959106,595.659180 725.225403,584.526855 724.666809,573.085388 
	C724.356201,566.724060 721.863220,564.471130 715.551514,564.562439 
	C708.563965,564.663635 701.574097,564.832581 694.589355,564.719849 
	C692.971313,564.693726 691.369812,563.644653 689.857422,562.681641 
	C688.967529,556.060913 687.401978,554.786804 680.528320,554.939453 
	C651.705627,554.904297 623.347290,554.933594 594.526062,554.885986 
	C589.623169,554.826782 585.183105,554.843018 580.743042,554.862366 
	C573.120361,554.895508 571.662415,556.256897 570.932373,564.029358 
	C570.861389,564.107361 570.910217,564.312500 570.740967,564.399536 
	C570.349060,564.622192 570.159302,564.794006 570.001221,565.001099 
	C570.000000,565.000000 570.003601,565.002686 569.536011,564.961426 
	C561.072327,564.907715 553.076233,564.878296 545.080078,564.887878 
	C538.152832,564.896179 535.651794,567.143188 535.963623,574.211487 
	C536.284729,581.489746 537.311401,588.736938 538.029297,595.997681 
	C537.361084,599.670471 536.633301,603.333862 536.048401,607.019897 
	C535.727051,609.044617 535.242798,611.177917 535.583679,613.131104 
	C535.860291,614.716187 536.920837,616.841736 538.223999,617.438354 
	C541.603638,618.985596 542.673706,621.467041 543.033813,624.853394 
	C544.182678,635.655823 548.564148,638.353516 558.695557,634.678345 
	C558.851318,634.621826 559.002258,634.466736 559.146912,634.477112 
	C561.524719,634.647278 563.901123,634.836731 566.277893,635.021851 
	C566.047607,636.233521 566.169495,638.223633 565.523376,638.515991 
	C563.274536,639.533386 560.788574,640.255066 558.334229,640.498230 
	C557.006592,640.629822 555.590698,639.227661 554.161743,639.097412 
	C549.217712,638.646973 544.657959,639.923767 542.148010,644.454590 
	C538.415222,651.192810 532.624084,652.752502 525.693298,651.961670 
	C520.936401,651.418762 516.174255,650.779480 511.493530,649.803833 
	C510.185974,649.531250 508.746185,648.129150 508.080231,646.868469 
	C505.959167,642.852783 500.617065,641.233948 497.330597,644.349854 
	C493.951721,647.553345 491.055542,649.891968 486.806671,645.685059 
	C486.300476,645.183899 484.098236,645.914062 482.993561,646.585632 
	C479.046783,648.985229 475.623199,648.598999 472.480560,645.114807 
	C469.299500,641.588013 462.770782,640.863159 458.986725,643.721985 
	C458.255920,644.274048 457.289612,645.348633 457.393219,646.037598 
	C458.156464,651.113525 454.410675,651.283203 451.474426,650.874451 
	C443.820038,649.808838 436.342041,649.820496 428.865814,651.935486 
	C427.487396,652.325500 425.757599,652.304443 424.418976,651.828796 
	C421.742035,650.877625 418.961639,649.737610 420.885803,645.808777 
	C422.514771,642.482788 421.388214,641.103149 417.583344,640.928772 
	C407.837891,640.482483 398.092773,639.002014 388.379150,639.237976 
	C381.528534,639.404419 374.022766,638.918640 368.319916,644.807739 
	C367.264160,645.898010 364.086090,645.224976 361.959045,644.899170 
	C360.045013,644.606018 358.209808,643.151550 356.377258,643.219482 
	C355.305084,643.259216 353.222900,645.625000 353.454803,646.347595 
	C354.714752,650.273804 352.225037,650.777100 349.617554,650.942627 
	C346.056885,651.168579 342.460205,651.209167 338.901733,650.978455 
	C335.466064,650.755493 332.059326,650.087219 328.328247,649.571472 
	C328.478912,647.882019 328.617218,646.331177 328.758728,644.744446 
	C320.066589,641.299133 311.293274,639.108582 302.026154,640.060730 
	C299.480530,640.322266 297.006927,641.308289 294.507935,641.989990 
	C293.413147,642.288574 292.296997,643.040894 291.260162,642.930969 
	C285.801636,642.351929 280.161835,642.240540 274.971558,640.680542 
	C268.106842,638.617249 261.420502,638.295593 254.533508,639.677368 
	C247.785431,641.031189 242.145432,638.817993 237.030594,634.569336 
	C235.807510,633.553345 234.314255,632.862610 232.600922,632.021606 
	C232.207565,629.306030 232.158524,626.591125 232.498367,623.425842 
	C233.437347,622.545044 233.987427,622.114685 234.537506,621.684326 
	C233.774979,621.461548 233.012436,621.238770 232.249893,621.016052 
	C232.192886,598.263611 232.111359,575.511108 232.086670,552.758667 
	C232.067215,534.819702 232.117737,516.880554 232.591064,498.496246 
	C233.680603,498.675171 234.788620,499.240906 234.874191,499.933105 
	C235.381149,504.034119 235.709671,508.160553 235.981781,512.286133 
	C236.194244,515.507324 236.976074,517.764526 240.066956,519.996826 
	C242.418488,521.695251 243.003189,526.106750 243.929092,529.434937 
	C244.800781,532.568237 242.541931,533.667175 239.946243,534.628662 
	C236.616074,535.862183 236.106827,538.703003 236.432358,541.967224 
	C236.759979,545.252319 236.928040,548.578552 236.814590,551.874695 
	C236.717682,554.690369 242.545883,560.998596 245.366592,560.746521 
	C252.050781,560.149170 261.867218,549.934326 261.927185,543.300476 
	C261.939545,541.932800 261.489502,540.189758 260.591492,539.254517 
	C257.900757,536.452454 254.964096,533.866333 251.965591,531.386719 
	C249.704361,529.516724 249.105453,527.454102 250.800003,524.932251 
	C251.627792,526.279175 252.381470,527.505554 252.991165,528.497620 
	C254.705627,526.948914 256.137268,524.549805 257.614716,524.521240 
	C262.754211,524.422119 268.056366,524.530273 273.020264,525.716370 
	C278.719604,527.078186 284.065674,529.860901 289.693420,531.615173 
	C291.377167,532.140076 293.488342,531.263672 295.407959,531.071899 
	C296.930908,530.919739 298.894623,530.206543 299.871185,530.883789 
	C300.959930,531.638794 301.858063,533.885437 301.510071,535.102844 
	C301.241058,536.044006 298.818512,536.237915 297.545502,537.061157 
	C296.298828,537.867371 294.244141,539.283264 294.407410,540.016846 
	C294.729645,541.464478 296.115967,543.277405 297.472595,543.742676 
	C299.232941,544.346313 301.506317,544.174500 303.358765,543.641357 
	C307.389069,542.481262 310.610809,542.559753 313.390289,546.415710 
	C314.269775,547.635742 317.550385,548.594177 318.655060,547.916504 
	C322.492523,545.562500 325.308716,546.437622 328.371338,549.125671 
	C330.594879,551.077271 333.730377,552.201660 335.442383,554.464355 
	C337.139374,556.707275 339.112946,560.654541 338.212494,562.538879 
	C336.496490,566.129822 337.994659,567.712708 339.901703,569.747437 
	C340.333954,569.770569 340.721619,569.911499 340.982635,569.786926 
	C344.209290,568.247437 350.337341,569.711365 348.449280,562.686768 
	C348.417053,562.566956 350.282806,561.510986 351.073151,561.697205 
	C352.223419,561.968201 353.201019,562.972107 354.270538,563.675537 
	C356.193085,559.873169 358.307770,558.982117 359.767670,561.162903 
	C363.436432,561.902954 366.337006,561.627319 367.739014,562.945557 
	C370.903412,565.920715 373.943970,566.828857 376.654388,563.666077 
	C381.803223,557.657959 388.994507,557.374878 395.860260,555.976685 
	C397.201599,555.703369 398.481842,555.129822 399.790283,554.694702 
	C398.985016,552.588989 398.550720,550.196899 397.231415,548.488037 
	C396.475220,547.508423 394.293274,547.490845 392.727448,547.367859 
	C392.311523,547.335144 391.272491,548.705811 391.417969,549.103210 
	C392.431976,551.872375 391.649658,554.226807 388.857910,554.289612 
	C387.102051,554.329041 384.905762,552.531128 383.594360,550.977417 
	C380.640808,547.478210 372.209534,546.872986 369.420868,550.293823 
	C365.308380,555.338501 362.606110,555.985840 356.945190,554.181702 
	C351.567963,552.468018 353.272247,548.274841 353.546448,544.737549 
	C364.161682,544.844849 374.319489,544.907776 384.477356,544.916016 
	C393.727631,544.923584 395.852966,542.724182 395.861603,533.404541 
	C395.895752,496.600891 395.944794,459.797241 396.293060,423.233002 
	C397.064697,425.033508 397.886322,426.582001 397.942200,428.157623 
	C398.377808,440.441620 398.637756,452.731781 399.028961,465.017548 
	C399.091583,466.983673 399.560028,468.934875 399.803467,470.897644 
	C400.768951,478.681061 409.329132,483.906128 406.905884,493.129761 
	C409.600708,491.513947 411.446564,489.488922 413.674652,488.059845 
	C416.216278,486.429626 419.396942,483.822083 421.774841,484.292633 
	C428.067322,485.537781 432.960052,482.623566 437.980652,480.324921 
	C442.561890,478.227417 446.512604,475.330139 449.617096,470.677063 
	C451.977661,467.139069 457.206360,465.514709 460.992828,463.333313 
	C455.403870,469.469879 450.011780,475.340973 444.550323,481.146729 
	C438.063660,488.042328 431.195557,494.614410 425.157990,501.879547 
	C422.803253,504.713013 421.400879,508.976624 421.074188,512.720642 
	C420.439240,519.997498 420.854492,527.367432 420.865051,534.698853 
	C420.876617,542.720947 423.114075,544.896240 431.358612,544.899170 
	C457.018524,544.908142 482.678406,544.904846 508.338318,544.905701 
	C520.168518,544.906128 531.999573,544.991882 543.828552,544.871338 
	C550.617065,544.802185 553.055237,542.146423 553.079529,535.344910 
	C553.106323,527.846985 553.124146,520.348816 553.104492,512.850891 
	C553.085449,505.568359 550.510010,503.026947 543.138367,503.020569 
	C524.809875,503.004761 506.481415,503.019897 488.152985,502.996765 
	C486.956421,502.995270 485.760162,502.775299 483.578003,502.559448 
	C488.542816,497.914795 492.771423,493.958862 497.000549,490.407684 
	C496.461121,495.224365 498.954254,497.399902 502.843292,497.928589 
	C508.058990,498.637543 513.332214,499.232727 518.586182,499.281403 
	C527.461487,499.363739 536.348389,499.134216 545.215759,498.721405 
	C549.286987,498.531891 553.342102,497.698639 557.368896,496.962646 
	C559.859497,496.507446 562.283142,495.686096 564.773560,495.480957 
	C565.534912,500.991577 565.514099,506.300964 567.115723,511.064941 
	C573.402893,529.766602 587.673157,539.787292 605.880554,545.016724 
	C621.624573,549.538574 637.544250,549.789978 653.696533,547.156799 
	C678.042908,543.187927 697.358643,532.887512 706.049561,508.127808 
	C707.373291,510.512756 707.984192,514.147522 709.465515,514.545898 
	C713.117859,515.528198 717.253601,515.549622 721.033508,514.946045 
	C723.851868,514.495972 725.692078,514.398621 728.145081,516.354431 
	C730.533081,518.258484 733.938477,519.650879 736.967041,519.794617 
	C740.791443,519.976074 744.796753,519.022949 748.513184,517.875916 
	C751.080383,517.083557 753.820496,515.591370 755.540161,513.598206 
	C758.373474,510.314423 760.528931,507.016602 765.672668,506.764771 
	C774.409241,506.337006 781.137878,502.343079 784.152527,493.593414 
	C784.955566,491.262482 785.019226,488.593567 786.163696,486.481445 
	C788.312500,482.515717 791.001892,478.842834 793.466431,475.048157 
	C793.454895,481.840332 793.386292,488.633026 793.447815,495.424530 
	C793.509399,502.218201 793.809143,509.010620 793.815613,515.803711 
	C793.834961,536.247253 793.762390,556.690979 793.583984,577.590881 
M444.083832,647.395508 
	C445.290771,647.143677 446.497681,646.891907 448.459137,646.482605 
	C444.481750,643.973083 444.481750,643.973083 444.083832,647.395508 
M287.433472,540.364563 
	C287.166656,540.876587 286.899872,541.388550 286.633057,541.900574 
	C287.165802,542.121826 287.698547,542.343140 288.231262,542.564392 
	C288.139587,541.920654 288.047913,541.276917 287.433472,540.364563 
z"/>
<path fill="#92C2FC" opacity="1.000000" stroke="none" 
	d="
M793.605591,474.591095 
	C791.001892,478.842834 788.312500,482.515717 786.163696,486.481445 
	C785.019226,488.593567 784.955566,491.262482 784.152527,493.593414 
	C781.137878,502.343079 774.409241,506.337006 765.672668,506.764771 
	C760.528931,507.016602 758.373474,510.314423 755.540161,513.598206 
	C753.820496,515.591370 751.080383,517.083557 748.513184,517.875916 
	C744.796753,519.022949 740.791443,519.976074 736.967041,519.794617 
	C733.938477,519.650879 730.533081,518.258484 728.145081,516.354431 
	C725.692078,514.398621 723.851868,514.495972 721.033508,514.946045 
	C717.253601,515.549622 713.117859,515.528198 709.465515,514.545898 
	C707.984192,514.147522 707.373291,510.512756 706.115723,507.715576 
	C706.339233,503.635284 706.946228,500.202332 707.265320,496.742828 
	C709.031677,477.591675 703.315063,461.609497 686.850403,450.630859 
	C682.104858,447.466522 676.681763,445.318451 671.142517,442.486237 
	C672.708252,441.816193 674.043213,441.322266 675.309631,440.690918 
	C687.766907,434.480743 697.513977,425.715332 700.008850,411.380768 
	C703.253723,392.736877 700.695679,375.342957 687.118347,361.078674 
	C689.830566,362.747681 692.445374,364.166595 694.423889,366.203522 
	C697.177673,369.038605 699.733765,372.160309 701.842285,375.495758 
	C703.347900,377.877380 704.337219,380.736847 704.919556,383.516632 
	C705.897522,388.185272 706.058105,393.037964 707.215332,397.649414 
	C707.637634,399.332336 709.838013,401.586456 711.378845,401.711548 
	C713.269226,401.864960 716.409546,400.549774 717.099548,399.012299 
	C719.393738,393.900513 723.012390,390.668610 728.211914,389.303406 
	C734.073059,387.764526 739.684998,383.999451 746.254517,387.400726 
	C747.592712,388.093567 750.569946,387.522278 751.683655,386.417175 
	C756.450928,381.686646 762.136841,382.567108 767.642700,383.472687 
	C775.302185,384.732513 775.851379,384.671448 779.071045,377.315521 
	C779.460205,376.426422 780.220276,375.703796 780.642395,374.824310 
	C782.834656,370.257324 784.658142,365.475372 787.253479,361.154785 
	C788.709473,358.730957 791.411377,357.055511 793.551941,355.042908 
	C793.655518,366.480347 793.828369,377.917725 793.846375,389.355347 
	C793.873108,406.273682 793.789856,423.192139 793.294312,440.581726 
	C790.075745,443.694092 788.706177,452.533081 790.832092,455.031616 
	C791.363586,455.656403 792.603088,455.678833 793.517151,455.978119 
	C793.593079,462.030090 793.668945,468.082062 793.605591,474.591095 
z"/>
<path fill="#90C0FC" opacity="1.000000" stroke="none" 
	d="
M353.089050,544.669250 
	C353.272247,548.274841 351.567963,552.468018 356.945190,554.181702 
	C362.606110,555.985840 365.308380,555.338501 369.420868,550.293823 
	C372.209534,546.872986 380.640808,547.478210 383.594360,550.977417 
	C384.905762,552.531128 387.102051,554.329041 388.857910,554.289612 
	C391.649658,554.226807 392.431976,551.872375 391.417969,549.103210 
	C391.272491,548.705811 392.311523,547.335144 392.727448,547.367859 
	C394.293274,547.490845 396.475220,547.508423 397.231415,548.488037 
	C398.550720,550.196899 398.985016,552.588989 399.790283,554.694702 
	C398.481842,555.129822 397.201599,555.703369 395.860260,555.976685 
	C388.994507,557.374878 381.803223,557.657959 376.654388,563.666077 
	C373.943970,566.828857 370.903412,565.920715 367.739014,562.945557 
	C366.337006,561.627319 363.436432,561.902954 359.767670,561.162903 
	C358.307770,558.982117 356.193085,559.873169 354.270538,563.675537 
	C353.201019,562.972107 352.223419,561.968201 351.073151,561.697205 
	C350.282806,561.510986 348.417053,562.566956 348.449280,562.686768 
	C350.337341,569.711365 344.209290,568.247437 340.982635,569.786926 
	C340.721619,569.911499 340.333954,569.770569 339.901703,569.747437 
	C337.994659,567.712708 336.496490,566.129822 338.212494,562.538879 
	C339.112946,560.654541 337.139374,556.707275 335.442383,554.464355 
	C333.730377,552.201660 330.594879,551.077271 328.371338,549.125671 
	C325.308716,546.437622 322.492523,545.562500 318.655060,547.916504 
	C317.550385,548.594177 314.269775,547.635742 313.390289,546.415710 
	C310.610809,542.559753 307.389069,542.481262 303.358765,543.641357 
	C301.506317,544.174500 299.232941,544.346313 297.472595,543.742676 
	C296.115967,543.277405 294.729645,541.464478 294.407410,540.016846 
	C294.244141,539.283264 296.298828,537.867371 297.545502,537.061157 
	C298.818512,536.237915 301.241058,536.044006 301.510071,535.102844 
	C301.858063,533.885437 300.959930,531.638794 299.871185,530.883789 
	C298.894623,530.206543 296.930908,530.919739 295.407959,531.071899 
	C293.488342,531.263672 291.377167,532.140076 289.693420,531.615173 
	C284.065674,529.860901 278.719604,527.078186 273.020264,525.716370 
	C268.056366,524.530273 262.754211,524.422119 257.614716,524.521240 
	C256.137268,524.549805 254.705627,526.948914 252.991165,528.497620 
	C252.381470,527.505554 251.627792,526.279175 250.800003,524.932251 
	C249.105453,527.454102 249.704361,529.516724 251.965591,531.386719 
	C254.964096,533.866333 257.900757,536.452454 260.591492,539.254517 
	C261.489502,540.189758 261.939545,541.932800 261.927185,543.300476 
	C261.867218,549.934326 252.050781,560.149170 245.366592,560.746521 
	C242.545883,560.998596 236.717682,554.690369 236.814590,551.874695 
	C236.928040,548.578552 236.759979,545.252319 236.432358,541.967224 
	C236.106827,538.703003 236.616074,535.862183 239.946243,534.628662 
	C242.541931,533.667175 244.800781,532.568237 243.929092,529.434937 
	C243.003189,526.106750 242.418488,521.695251 240.066956,519.996826 
	C236.976074,517.764526 236.194244,515.507324 235.981781,512.286133 
	C235.709671,508.160553 235.381149,504.034119 234.874191,499.933105 
	C234.788620,499.240906 233.680603,498.675171 232.660019,498.033813 
	C232.231476,495.304077 232.187912,492.591583 232.577957,489.421875 
	C236.869705,485.423401 237.995743,481.076385 236.099670,476.279297 
	C235.442215,474.615967 233.604126,473.419250 232.305298,472.009399 
	C232.250275,454.655487 232.195251,437.301575 232.595032,419.501404 
	C233.698303,420.012177 234.822067,420.923035 234.920166,421.933472 
	C235.718170,430.152405 236.319550,438.390381 236.989853,446.621826 
	C237.881805,457.575134 244.568253,464.353790 253.401031,469.719849 
	C256.263397,471.458801 259.181335,473.406158 261.372101,475.879669 
	C264.559540,479.478485 267.991730,482.579254 272.849213,480.724457 
	C277.874634,478.805573 282.660522,476.068085 287.205383,473.150024 
	C290.201385,471.226471 292.538361,470.994659 295.924500,472.277405 
	C300.642700,474.064850 305.933655,476.220398 310.671509,475.651886 
	C318.509064,474.711395 325.202545,474.765808 331.532959,480.367737 
	C333.025940,481.688995 337.241913,480.305481 340.043732,479.559540 
	C340.941101,479.320648 341.596741,477.185760 341.877228,475.818695 
	C342.506409,472.752014 342.777466,469.613953 343.291534,466.521088 
	C344.154480,461.329132 345.712616,456.169159 345.876007,450.961151 
	C346.261871,438.663239 346.069519,426.344238 345.934326,414.035675 
	C345.909790,411.799469 345.046143,409.572479 344.753693,407.061768 
	C345.748322,406.225098 346.559143,405.667938 347.866669,404.769379 
	C347.866669,436.070587 347.866669,466.542542 347.483826,497.115295 
	C346.734039,498.734375 346.133362,500.238464 346.040192,501.773376 
	C345.619812,508.699066 345.385406,515.635803 344.999939,522.563904 
	C344.743408,527.174561 344.041107,531.781006 344.098358,536.382385 
	C344.152496,540.733337 345.836334,544.222351 351.447510,543.942993 
	C352.173279,544.189148 352.631165,544.429199 353.089050,544.669250 
z"/>
<path fill="#95C5FC" opacity="1.000000" stroke="none" 
	d="
M344.569885,407.341217 
	C345.046143,409.572479 345.909790,411.799469 345.934326,414.035675 
	C346.069519,426.344238 346.261871,438.663239 345.876007,450.961151 
	C345.712616,456.169159 344.154480,461.329132 343.291534,466.521088 
	C342.777466,469.613953 342.506409,472.752014 341.877228,475.818695 
	C341.596741,477.185760 340.941101,479.320648 340.043732,479.559540 
	C337.241913,480.305481 333.025940,481.688995 331.532959,480.367737 
	C325.202545,474.765808 318.509064,474.711395 310.671509,475.651886 
	C305.933655,476.220398 300.642700,474.064850 295.924500,472.277405 
	C292.538361,470.994659 290.201385,471.226471 287.205383,473.150024 
	C282.660522,476.068085 277.874634,478.805573 272.849213,480.724457 
	C267.991730,482.579254 264.559540,479.478485 261.372101,475.879669 
	C259.181335,473.406158 256.263397,471.458801 253.401031,469.719849 
	C244.568253,464.353790 237.881805,457.575134 236.989853,446.621826 
	C236.319550,438.390381 235.718170,430.152405 234.920166,421.933472 
	C234.822067,420.923035 233.698303,420.012177 232.660904,419.038971 
	C232.231155,399.330017 232.190369,379.637238 232.596252,359.497345 
	C234.357605,363.228394 236.266861,367.323212 236.866760,371.601624 
	C238.239883,381.394714 238.843750,391.292816 240.000992,401.119873 
	C241.301651,412.164886 247.028229,415.262543 257.616638,411.894379 
	C262.421814,410.365906 267.393585,408.853851 272.936584,411.557648 
	C278.951599,414.491730 283.437378,410.669861 285.230835,404.278748 
	C286.541077,399.609589 288.761536,393.408173 292.422943,391.571869 
	C299.297302,388.124146 303.211731,383.095337 304.669250,376.468323 
	C305.726562,371.661011 308.445190,370.675903 312.117828,370.080414 
	C314.062683,369.765076 316.100739,370.024536 317.944031,370.337097 
	C311.256042,375.200623 309.732880,381.720856 309.974121,389.245880 
	C310.260925,398.191406 310.046265,407.153534 310.018402,416.108337 
	C310.007477,419.618011 309.681976,423.267975 313.548615,425.198669 
	C317.391113,427.117279 320.442078,425.455444 323.528198,423.068268 
	C330.453552,417.711426 337.545685,412.570221 344.569885,407.341217 
z"/>
<path fill="#9AC9FC" opacity="1.000000" stroke="none" 
	d="
M793.668701,354.611938 
	C791.411377,357.055511 788.709473,358.730957 787.253479,361.154785 
	C784.658142,365.475372 782.834656,370.257324 780.642395,374.824310 
	C780.220276,375.703796 779.460205,376.426422 779.071045,377.315521 
	C775.851379,384.671448 775.302185,384.732513 767.642700,383.472687 
	C762.136841,382.567108 756.450928,381.686646 751.683655,386.417175 
	C750.569946,387.522278 747.592712,388.093567 746.254517,387.400726 
	C739.684998,383.999451 734.073059,387.764526 728.211914,389.303406 
	C723.012390,390.668610 719.393738,393.900513 717.099548,399.012299 
	C716.409546,400.549774 713.269226,401.864960 711.378845,401.711548 
	C709.838013,401.586456 707.637634,399.332336 707.215332,397.649414 
	C706.058105,393.037964 705.897522,388.185272 704.919556,383.516632 
	C704.337219,380.736847 703.347900,377.877380 701.842285,375.495758 
	C699.733765,372.160309 697.177673,369.038605 694.423889,366.203522 
	C692.445374,364.166595 689.830566,362.747681 686.790894,361.029175 
	C671.778503,349.558868 654.942810,345.488007 637.170349,345.189270 
	C627.507507,345.026825 617.817505,346.484039 607.853333,346.880798 
	C604.605408,346.367493 601.620972,345.886230 598.690857,346.111420 
	C596.909607,346.248322 595.126404,347.324921 593.497742,348.249969 
	C591.179382,349.566711 589.114380,351.362885 586.730652,352.520874 
	C584.676758,353.518585 582.073486,353.488556 580.157288,354.647430 
	C573.979614,358.383392 567.992859,362.437103 561.960327,366.410492 
	C557.936646,369.060730 547.024170,368.446442 543.055786,365.721954 
	C541.445557,364.616455 539.122986,364.548462 536.959106,363.705688 
	C534.180054,361.456573 531.795654,359.029633 528.909973,357.654144 
	C520.368164,353.582428 511.628632,349.925751 502.966431,346.106781 
	C504.400879,345.404327 505.844391,344.079071 507.268250,344.099915 
	C516.891174,344.240540 526.509277,344.687683 536.130737,344.976624 
	C537.610901,345.021088 539.551880,345.324524 540.513245,344.553070 
	C547.745911,338.749054 555.688293,341.633362 563.480103,342.261383 
	C565.052429,342.388092 567.300720,342.559753 568.165466,341.669495 
	C573.997681,335.665649 581.910095,336.664368 589.027405,335.054108 
	C592.409607,334.288879 595.922424,332.993958 599.237000,333.326263 
	C603.086060,333.712189 606.873718,335.401337 610.521912,336.922913 
	C614.954163,338.771515 618.613464,342.227386 624.307190,339.568085 
	C630.933350,336.473297 638.019470,336.927338 645.014282,339.440704 
	C650.328247,341.350067 655.097839,341.969086 660.757080,338.110504 
	C666.509583,334.188385 674.109741,334.885620 679.893982,339.568268 
	C686.950317,345.280701 694.585999,345.926392 702.835815,343.807617 
	C704.316040,343.427460 706.020691,342.378510 706.815308,341.126556 
	C711.359497,333.966614 718.776855,332.911469 726.092529,332.167389 
	C728.824097,331.889526 731.719482,333.673187 734.593933,334.247528 
	C739.223206,335.172546 743.896729,335.876099 748.552246,336.669037 
	C749.957214,336.908264 751.369324,337.108551 752.769958,337.370148 
	C756.882874,338.138245 761.686157,340.612976 764.924438,339.278290 
	C768.874146,337.650421 772.164917,333.230408 774.566467,329.300415 
	C778.906311,322.198639 782.374939,314.564484 786.552368,307.084320 
	C790.757812,317.355255 793.189636,327.971100 792.708984,339.600952 
	C790.513611,342.080658 789.891235,343.848450 793.083435,345.016235 
	C793.317444,348.071136 793.551453,351.126068 793.668701,354.611938 
z"/>
<path fill="#9AC9FC" opacity="1.000000" stroke="none" 
	d="
M318.096741,370.024536 
	C316.100739,370.024536 314.062683,369.765076 312.117828,370.080414 
	C308.445190,370.675903 305.726562,371.661011 304.669250,376.468323 
	C303.211731,383.095337 299.297302,388.124146 292.422943,391.571869 
	C288.761536,393.408173 286.541077,399.609589 285.230835,404.278748 
	C283.437378,410.669861 278.951599,414.491730 272.936584,411.557648 
	C267.393585,408.853851 262.421814,410.365906 257.616638,411.894379 
	C247.028229,415.262543 241.301651,412.164886 240.000992,401.119873 
	C238.843750,391.292816 238.239883,381.394714 236.866760,371.601624 
	C236.266861,367.323212 234.357605,363.228394 232.668121,359.035645 
	C232.242783,354.657990 232.192245,350.294830 232.226547,345.474030 
	C235.078430,346.747314 238.585983,347.910278 240.446899,350.336304 
	C243.595139,354.440582 246.708099,357.748871 252.268127,356.970764 
	C258.629089,356.080627 264.941223,354.824524 271.312469,354.032471 
	C274.155670,353.678955 277.318359,353.392914 279.936798,354.269196 
	C284.958405,355.949768 289.538086,355.352997 294.387054,353.803894 
	C303.984009,350.738007 313.662964,347.921295 323.356049,345.170868 
	C324.874237,344.740082 326.670685,345.403076 328.293030,345.199036 
	C330.666595,344.900513 334.083191,345.074310 335.142181,343.637146 
	C338.104156,339.617310 341.757019,340.761322 345.383240,341.035767 
	C353.125153,341.621643 360.868652,342.237274 368.583374,343.094147 
	C370.399353,343.295868 372.103668,344.502930 373.463013,345.622681 
	C370.908661,345.998566 368.744904,345.897888 366.593872,346.020538 
	C361.719299,346.298401 356.851013,346.686371 351.577698,347.066620 
	C346.496735,349.085541 341.818176,351.067352 336.716278,353.040588 
	C334.014435,353.358612 331.742798,353.747345 329.456116,353.999756 
	C323.446228,354.663147 320.983337,358.675507 320.738159,368.011902 
	C319.677155,368.776794 318.886963,369.400665 318.096741,370.024536 
z"/>
<path fill="#9AC9FC" opacity="1.000000" stroke="none" 
	d="
M766.835083,271.805054 
	C763.006653,276.454926 755.298157,275.024719 753.325195,269.344269 
	C751.889221,265.209686 751.112061,260.846283 750.065125,256.163177 
	C755.628174,260.990631 761.167297,266.239807 766.835083,271.805054 
z"/>
<path fill="#8CBCFC" opacity="1.000000" stroke="none" 
	d="
M232.221573,472.470276 
	C233.604126,473.419250 235.442215,474.615967 236.099670,476.279297 
	C237.995743,481.076385 236.869705,485.423401 232.657166,488.977478 
	C232.247787,483.637177 232.192825,478.284180 232.221573,472.470276 
z"/>
<path fill="#8CBCFC" opacity="1.000000" stroke="none" 
	d="
M793.635864,455.525696 
	C792.603088,455.678833 791.363586,455.656403 790.832092,455.031616 
	C788.706177,452.533081 790.075745,443.694092 793.182251,441.038147 
	C793.604309,445.706696 793.679443,450.389984 793.635864,455.525696 
z"/>
<path fill="#92C2FC" opacity="1.000000" stroke="none" 
	d="
M793.105225,344.597534 
	C789.891235,343.848450 790.513611,342.080658 792.680481,340.059601 
	C793.073303,341.387421 793.100098,342.783112 793.105225,344.597534 
z"/>
<path fill="#85B6FC" opacity="1.000000" stroke="none" 
	d="
M232.188049,621.342102 
	C233.012436,621.238770 233.774979,621.461548 234.537506,621.684326 
	C233.987427,622.114685 233.437347,622.545044 232.569702,622.979492 
	C232.210159,622.545105 232.168182,622.106628 232.188049,621.342102 
z"/>
<path fill="#FEEA59" opacity="1.000000" stroke="none" 
	d="
M612.929626,678.524902 
	C614.210999,673.551941 615.720154,668.620239 616.633362,663.580566 
	C616.903259,662.091003 615.951782,659.364563 614.779419,658.785645 
	C602.446289,652.694885 592.516724,643.907898 584.144531,632.311523 
	C581.516052,627.447571 579.224670,623.125122 576.902100,618.432312 
	C571.931519,605.178284 569.210632,591.910522 569.950806,577.578857 
	C569.972778,573.076172 569.988220,569.039429 570.003601,565.002686 
	C570.003601,565.002686 570.000000,565.000000 570.161011,564.894043 
	C570.518616,564.630310 570.714661,564.471741 570.910217,564.312500 
	C570.910217,564.312500 570.861389,564.107361 571.318237,564.087646 
	C574.964111,564.713135 578.146423,565.874878 581.343384,565.916809 
	C597.585876,566.129822 613.832275,566.052551 630.051636,566.537292 
	C630.030518,593.671082 630.035034,620.344421 630.023438,647.485107 
	C630.032166,657.167480 630.119385,666.383362 629.993225,675.596375 
	C629.979248,676.614624 628.744873,677.616150 627.606934,678.697998 
	C622.401428,678.688660 617.665527,678.606812 612.929626,678.524902 
z"/>
<path fill="#FBCA2E" opacity="1.000000" stroke="none" 
	d="
M628.076538,678.625427 
	C628.744873,677.616150 629.979248,676.614624 629.993225,675.596375 
	C630.119385,666.383362 630.032166,657.167480 630.414307,647.471924 
	C638.460571,645.931885 645.003784,642.207764 650.780090,637.543396 
	C663.033691,627.648499 671.404968,614.867981 673.892151,599.267578 
	C675.627075,588.385132 675.388184,577.187988 676.482544,566.099060 
	C681.360474,565.711121 686.248840,567.330994 689.760742,563.066284 
	C691.369812,563.644653 692.971313,564.693726 694.589355,564.719849 
	C701.574097,564.832581 708.563965,564.663635 715.551514,564.562439 
	C721.863220,564.471130 724.356201,566.724060 724.666809,573.085388 
	C725.225403,584.526855 723.959106,595.659180 718.472412,606.671387 
	C717.643311,608.462524 717.130737,609.670166 716.618103,610.877808 
	C715.456421,612.345154 714.294739,613.812500 712.792297,615.722412 
	C712.010986,616.775085 711.570496,617.385254 711.129944,617.995422 
	C710.148621,618.965881 709.167297,619.936340 707.746216,621.312988 
	C707.110535,622.091553 706.914734,622.463867 706.718994,622.836182 
	C706.718994,622.836182 706.816284,622.703979 706.428833,622.754761 
	C705.172546,623.493164 704.303589,624.180725 703.434692,624.868286 
	C703.434692,624.868286 703.160767,624.820190 703.080322,624.933655 
	C695.834839,629.639282 688.107178,632.216003 679.488098,632.234924 
	C677.868225,632.238464 675.753052,633.507812 674.713806,634.849487 
	C667.125366,644.645752 657.719482,652.110352 646.803406,657.872253 
	C645.527222,658.545837 644.181091,660.907715 644.389221,662.251099 
	C645.202026,667.496887 646.626831,672.647888 647.444763,678.298096 
	C640.735779,678.716492 634.406189,678.670959 628.076538,678.625427 
M706.297546,601.694092 
	C710.346924,594.362305 711.805115,586.572449 710.804382,578.179199 
	C704.056702,578.179199 697.683411,578.179199 692.431824,578.179199 
	C689.968689,592.025818 687.606079,605.307190 685.182861,618.929199 
	C694.277954,616.795227 701.053467,610.829529 706.297546,601.694092 
z"/>
<path fill="#536175" opacity="1.000000" stroke="none" 
	d="
M627.606934,678.697998 
	C634.406189,678.670959 640.735779,678.716492 647.525635,678.657349 
	C655.016357,678.665527 662.046875,678.778320 669.539307,679.397339 
	C668.970459,684.559326 667.902466,689.207275 666.920776,693.873474 
	C666.134338,697.611572 664.092834,700.395874 660.363525,701.240723 
	C651.231018,703.309326 642.096069,706.262756 632.851501,706.746460 
	C615.931824,707.631592 598.932434,706.990784 581.966248,706.986328 
	C581.940613,699.528198 581.941895,692.069824 581.878296,684.612061 
	C581.844727,680.672302 583.733215,678.872253 587.653687,678.871948 
	C595.777466,678.871277 603.901245,678.766724 612.477295,678.614868 
	C617.665527,678.606812 622.401428,678.688660 627.606934,678.697998 
z"/>
<path fill="#FBCA2E" opacity="1.000000" stroke="none" 
	d="
M569.536011,564.961426 
	C569.988220,569.039429 569.972778,573.076172 569.494873,577.487915 
	C562.464783,577.862976 555.897156,577.862976 549.405212,577.862976 
	C548.142151,598.564453 559.369019,614.916382 576.933228,618.802612 
	C579.224670,623.125122 581.516052,627.447571 583.858887,632.080383 
	C564.303284,633.586548 544.831909,618.895081 539.006104,598.509888 
	C538.824463,597.874146 538.642395,597.238586 538.244934,596.300293 
	C537.311401,588.736938 536.284729,581.489746 535.963623,574.211487 
	C535.651794,567.143188 538.152832,564.896179 545.080078,564.887878 
	C553.076233,564.878296 561.072327,564.907715 569.536011,564.961426 
z"/>
<path fill="#48556A" opacity="1.000000" stroke="none" 
	d="
M581.810486,707.256470 
	C598.932434,706.990784 615.931824,707.631592 632.851501,706.746460 
	C642.096069,706.262756 651.231018,703.309326 660.363525,701.240723 
	C664.092834,700.395874 666.134338,697.611572 666.920776,693.873474 
	C667.902466,689.207275 668.970459,684.559326 670.003479,679.471069 
	C678.135986,678.761169 679.130066,679.689453 679.094177,687.512146 
	C679.064331,694.008423 679.103760,700.505859 678.990601,707.000610 
	C678.901917,712.093262 677.081787,713.916077 672.023987,713.921875 
	C644.205872,713.953613 616.387756,713.925842 588.569641,713.936951 
	C584.239075,713.938721 581.476624,712.342529 581.810486,707.256470 
z"/>
<path fill="#FDFEFE" opacity="1.000000" stroke="none" 
	d="
M502.596191,346.072113 
	C511.628632,349.925751 520.368164,353.582428 528.909973,357.654144 
	C531.795654,359.029633 534.180054,361.456573 537.046021,364.023743 
	C540.872314,369.958588 545.003967,374.987579 547.897766,380.649231 
	C553.092468,390.812317 553.382507,401.872681 552.014404,413.259094 
	C551.977966,413.503754 552.010132,413.997345 551.952881,414.368713 
	C551.508301,416.435974 551.120911,418.131805 550.499023,420.102661 
	C546.157532,428.443054 542.746704,436.974823 537.744934,444.440704 
	C532.890259,451.687073 526.502258,457.929565 520.607056,464.449646 
	C512.830200,473.050781 504.877258,481.492615 497.000000,490.002930 
	C492.771423,493.958862 488.542816,497.914795 483.578003,502.559448 
	C485.760162,502.775299 486.956421,502.995270 488.152985,502.996765 
	C506.481415,503.019897 524.809875,503.004761 543.138367,503.020569 
	C550.510010,503.026947 553.085449,505.568359 553.104492,512.850891 
	C553.124146,520.348816 553.106323,527.846985 553.079529,535.344910 
	C553.055237,542.146423 550.617065,544.802185 543.828552,544.871338 
	C531.999573,544.991882 520.168518,544.906128 508.338318,544.905701 
	C482.678406,544.904846 457.018524,544.908142 431.358612,544.899170 
	C423.114075,544.896240 420.876617,542.720947 420.865051,534.698853 
	C420.854492,527.367432 420.439240,519.997498 421.074188,512.720642 
	C421.400879,508.976624 422.803253,504.713013 425.157990,501.879547 
	C431.195557,494.614410 438.063660,488.042328 444.550323,481.146729 
	C450.011780,475.340973 455.403870,469.469879 461.293091,463.206482 
	C471.204132,452.929352 480.852173,443.257324 490.002472,433.135315 
	C494.195068,428.497498 497.932404,423.260956 500.928925,417.778198 
	C504.378082,411.467194 505.345337,404.505463 501.750031,397.684235 
	C497.995911,390.561676 490.537781,386.991760 481.962769,388.066711 
	C473.417908,389.137939 467.157623,394.403656 465.049408,402.791046 
	C463.918915,407.288696 461.445801,409.936523 456.819458,409.990356 
	C446.823456,410.106781 436.823029,410.130554 426.828491,409.957184 
	C422.020874,409.873779 420.160217,407.507294 419.835510,402.717804 
	C419.076538,391.522888 421.508759,381.231476 428.305786,371.814148 
	C434.743439,365.761719 440.913452,359.903564 447.398499,353.899536 
	C451.105103,352.201141 454.371887,350.233612 457.910370,349.169464 
	C471.675842,345.029602 485.735535,343.982635 499.996338,345.974609 
	C500.739563,345.995544 501.482758,346.016479 502.596191,346.072113 
z"/>
<path fill="#FDFEFE" opacity="1.000000" stroke="none" 
	d="
M337.139648,353.049194 
	C341.818176,351.067352 346.496735,349.085541 352.047882,347.096313 
	C361.293091,347.075867 369.665710,347.062805 378.038300,347.049774 
	C381.384155,347.069855 384.730011,347.089935 388.841125,347.235077 
	C394.483765,349.256836 395.901489,353.226685 395.950134,358.465942 
	C395.943939,364.955627 395.968811,370.977661 395.959167,377.463379 
	C395.949341,382.284271 395.974030,386.641541 395.962158,391.466431 
	C395.946686,399.958588 395.967743,407.983063 395.948792,416.443054 
	C395.935303,418.916870 395.961792,420.955231 395.988281,422.993591 
	C395.944794,459.797241 395.895752,496.600891 395.861603,533.404541 
	C395.852966,542.724182 393.727631,544.923584 384.477356,544.916016 
	C374.319489,544.907776 364.161682,544.844849 353.546448,544.737549 
	C352.631165,544.429199 352.173279,544.189148 351.221283,543.650269 
	C349.819305,540.633362 348.195374,537.933350 348.125946,535.194031 
	C347.803741,522.473511 347.912292,509.742035 347.866669,497.014496 
	C347.866669,466.542542 347.866669,436.070587 347.866669,404.769379 
	C346.559143,405.667938 345.748322,406.225098 344.753723,407.061768 
	C337.545685,412.570221 330.453552,417.711426 323.528198,423.068268 
	C320.442078,425.455444 317.391113,427.117279 313.548615,425.198669 
	C309.681976,423.267975 310.007477,419.618011 310.018402,416.108337 
	C310.046265,407.153534 310.260925,398.191406 309.974121,389.245880 
	C309.732880,381.720856 311.256042,375.200623 317.944031,370.337097 
	C318.886963,369.400665 319.677155,368.776794 321.056396,367.929657 
	C326.810211,362.820679 331.974915,357.934937 337.139648,353.049194 
z"/>
<path fill="#9AC9FC" opacity="1.000000" stroke="none" 
	d="
M395.981171,357.998322 
	C395.901489,353.226685 394.483765,349.256836 389.297272,347.213745 
	C390.236572,346.510101 391.534515,345.384735 392.725311,345.488556 
	C400.019135,346.124603 407.287476,347.634918 414.566681,347.649261 
	C419.345581,347.658661 424.120728,345.605560 428.914429,344.553131 
	C430.359680,344.235870 431.914764,343.838043 433.328186,344.059692 
	C438.736542,344.907776 443.489899,344.974762 447.653687,340.083374 
	C448.928528,338.585785 453.235352,339.534973 456.149017,339.594360 
	C462.371155,339.721191 468.589844,340.158905 474.810699,340.176117 
	C483.532623,340.200165 492.356384,339.456451 499.937164,345.625000 
	C485.735535,343.982635 471.675842,345.029602 457.910370,349.169464 
	C454.371887,350.233612 451.105103,352.201141 447.041229,353.742065 
	C439.290588,352.242432 435.026093,354.167755 431.592865,361.003876 
	C430.153656,363.869568 428.471252,364.819275 425.218201,365.214142 
	C421.157501,365.707062 416.990540,367.219116 413.402588,369.238434 
	C408.784119,371.837677 406.776245,371.432922 404.252502,366.773071 
	C402.328766,363.221069 401.549377,358.243011 395.981171,357.998322 
z"/>
<path fill="#90C0FC" opacity="1.000000" stroke="none" 
	d="
M377.806824,346.769196 
	C369.665710,347.062805 361.293091,347.075867 352.450317,347.059235 
	C356.851013,346.686371 361.719299,346.298401 366.593872,346.020538 
	C368.744904,345.897888 370.908661,345.998566 373.535767,345.994690 
	C375.195038,346.157196 376.385162,346.322906 377.806824,346.769196 
z"/>
<path fill="#FDFEFE" opacity="1.000000" stroke="none" 
	d="
M608.139709,347.210693 
	C617.817505,346.484039 627.507507,345.026825 637.170349,345.189270 
	C654.942810,345.488007 671.778503,349.558868 686.409607,361.054749 
	C700.695679,375.342957 703.253723,392.736877 700.008850,411.380768 
	C697.513977,425.715332 687.766907,434.480743 675.309631,440.690918 
	C674.043213,441.322266 672.708252,441.816193 671.142517,442.486237 
	C676.681763,445.318451 682.104858,447.466522 686.850403,450.630859 
	C703.315063,461.609497 709.031677,477.591675 707.265320,496.742828 
	C706.946228,500.202332 706.339233,503.635284 705.798950,507.492737 
	C697.358643,532.887512 678.042908,543.187927 653.696533,547.156799 
	C637.544250,549.789978 621.624573,549.538574 605.880554,545.016724 
	C587.673157,539.787292 573.402893,529.766602 567.115723,511.064941 
	C565.514099,506.300964 565.534912,500.991577 564.968445,495.171265 
	C567.434204,491.107117 570.599548,489.956207 574.600098,490.024933 
	C583.421326,490.176453 592.251099,490.173004 601.070435,489.952942 
	C605.755066,489.835999 609.028137,491.302185 611.017944,495.760803 
	C613.327148,500.935028 617.477478,504.693268 622.997498,505.347656 
	C629.470764,506.115051 636.269592,506.508057 642.622498,505.366852 
	C652.345703,503.620178 658.029907,495.569519 657.972778,485.943665 
	C657.916992,476.548065 652.737122,469.791199 642.663879,467.861603 
	C635.560303,466.500824 628.178772,466.516418 620.910461,466.113922 
	C615.354187,465.806213 613.123596,464.292511 612.926697,458.871979 
	C612.589722,449.594543 612.754517,440.298859 612.854614,430.671448 
	C615.599548,428.925018 618.065491,426.786713 620.828857,426.284180 
	C624.865112,425.550140 629.135315,426.233826 633.270325,425.888763 
	C652.034668,424.322876 654.763428,409.824677 650.656311,398.358551 
	C648.055176,391.096832 641.850098,388.253235 634.505554,387.982635 
	C625.937134,387.666931 617.643005,388.528931 612.980042,397.191132 
	C611.270203,400.367279 609.339539,402.866364 605.556763,402.904266 
	C595.407166,403.005951 585.253174,403.090851 575.107361,402.876068 
	C571.969299,402.809631 568.458923,401.981964 568.022034,397.948090 
	C566.379517,382.785156 572.674438,366.419861 585.120239,358.228180 
	C592.160583,353.594299 600.426025,350.821686 608.139709,347.210693 
z"/>
<path fill="#92C2FC" opacity="1.000000" stroke="none" 
	d="
M396.293030,423.233002 
	C395.961792,420.955231 395.935303,418.916870 396.247559,416.148987 
	C396.725006,411.969910 397.059631,408.514404 396.954681,405.072327 
	C396.811462,400.375793 396.333282,395.689484 395.998718,390.998779 
	C395.974030,386.641541 395.949341,382.284271 396.353394,377.475128 
	C397.854980,379.841675 399.497498,382.585632 399.877869,385.494659 
	C400.589478,390.936981 406.948761,395.042725 412.001129,393.208008 
	C415.740021,391.850250 415.609406,388.810028 415.961548,385.986023 
	C417.189331,376.139557 420.240753,372.513977 428.038177,372.008423 
	C421.508759,381.231476 419.076538,391.522888 419.835510,402.717804 
	C420.160217,407.507294 422.020874,409.873779 426.828491,409.957184 
	C436.823029,410.130554 446.823456,410.106781 456.819458,409.990356 
	C461.445801,409.936523 463.918915,407.288696 465.049408,402.791046 
	C467.157623,394.403656 473.417908,389.137939 481.962769,388.066711 
	C490.537781,386.991760 497.995911,390.561676 501.750031,397.684235 
	C505.345337,404.505463 504.378082,411.467194 500.928925,417.778198 
	C497.932404,423.260956 494.195068,428.497498 490.002472,433.135315 
	C480.852173,443.257324 471.204132,452.929352 461.459229,462.912109 
	C457.206360,465.514709 451.977661,467.139069 449.617096,470.677063 
	C446.512604,475.330139 442.561890,478.227417 437.980652,480.324921 
	C432.960052,482.623566 428.067322,485.537781 421.774841,484.292633 
	C419.396942,483.822083 416.216278,486.429626 413.674652,488.059845 
	C411.446564,489.488922 409.600708,491.513947 406.905884,493.129761 
	C409.329132,483.906128 400.768951,478.681061 399.803467,470.897644 
	C399.560028,468.934875 399.091583,466.983673 399.028961,465.017548 
	C398.637756,452.731781 398.377808,440.441620 397.942200,428.157623 
	C397.886322,426.582001 397.064697,425.033508 396.293030,423.233002 
z"/>
<path fill="#92C2FC" opacity="1.000000" stroke="none" 
	d="
M612.708557,431.010834 
	C612.754517,440.298859 612.589722,449.594543 612.926697,458.871979 
	C613.123596,464.292511 615.354187,465.806213 620.910461,466.113922 
	C628.178772,466.516418 635.560303,466.500824 642.663879,467.861603 
	C652.737122,469.791199 657.916992,476.548065 657.972778,485.943665 
	C658.029907,495.569519 652.345703,503.620178 642.622498,505.366852 
	C636.269592,506.508057 629.470764,506.115051 622.997498,505.347656 
	C617.477478,504.693268 613.327148,500.935028 611.017944,495.760803 
	C609.028137,491.302185 605.755066,489.835999 601.070435,489.952942 
	C592.251099,490.173004 583.421326,490.176453 574.600098,490.024933 
	C570.599548,489.956207 567.434204,491.107117 564.931763,494.719452 
	C562.283142,495.686096 559.859497,496.507446 557.368896,496.962646 
	C553.342102,497.698639 549.286987,498.531891 545.215759,498.721405 
	C536.348389,499.134216 527.461487,499.363739 518.586182,499.281403 
	C513.332214,499.232727 508.058990,498.637543 502.843292,497.928589 
	C498.954254,497.399902 496.461121,495.224365 497.000549,490.407654 
	C504.877258,481.492615 512.830200,473.050781 520.607056,464.449646 
	C526.502258,457.929565 532.890259,451.687073 537.744934,444.440704 
	C542.746704,436.974823 546.157532,428.443054 550.816101,420.340820 
	C551.460327,421.404907 551.823242,422.564117 551.600586,423.597137 
	C550.389954,429.213776 548.974365,434.786102 547.754395,440.400879 
	C547.114746,443.344604 550.027466,446.821838 552.870361,446.521667 
	C555.971985,446.194183 559.033142,445.415253 562.137451,445.196960 
	C566.853088,444.865417 572.081970,443.538239 576.177246,445.074646 
	C580.064453,446.532928 582.881104,446.863373 586.130798,444.820526 
	C588.070374,443.601257 590.100037,442.373322 591.669800,440.744965 
	C597.452698,434.746277 605.491943,433.800964 612.708557,431.010834 
z"/>
<path fill="#FEEB72" opacity="1.000000" stroke="none" 
	d="
M689.857422,562.681580 
	C686.248840,567.330994 681.360474,565.711121 676.011841,566.057739 
	C660.085449,566.058105 645.081360,566.067505 630.077271,566.076904 
	C613.832275,566.052551 597.585876,566.129822 581.343384,565.916809 
	C578.146423,565.874878 574.964111,564.713135 571.389221,564.009644 
	C571.662415,556.256897 573.120361,554.895508 580.743042,554.862366 
	C585.183105,554.843018 589.623169,554.826782 594.817444,555.188477 
	C596.379150,555.709412 597.186523,555.974182 597.994141,555.974915 
	C624.433411,555.998535 650.872742,556.010132 677.311951,555.956604 
	C678.539490,555.954102 679.765808,555.335510 680.992676,555.003906 
	C687.401978,554.786804 688.967529,556.060913 689.857422,562.681580 
z"/>
<path fill="#FEEA59" opacity="1.000000" stroke="none" 
	d="
M680.528320,554.939453 
	C679.765808,555.335510 678.539490,555.954102 677.311951,555.956604 
	C650.872742,556.010132 624.433411,555.998535 597.994141,555.974915 
	C597.186523,555.974182 596.379150,555.709412 595.280273,555.265320 
	C623.347290,554.933594 651.705627,554.904297 680.528320,554.939453 
z"/>
<path fill="#85B6FC" opacity="1.000000" stroke="none" 
	d="
M443.848450,647.162231 
	C444.481750,643.973083 444.481750,643.973083 448.459137,646.482605 
	C446.497681,646.891907 445.290771,647.143677 443.848450,647.162231 
z"/>
<path fill="#85B6FC" opacity="1.000000" stroke="none" 
	d="
M717.002441,610.885986 
	C717.130737,609.670166 717.643311,608.462524 718.402222,607.040039 
	C721.115784,609.077087 719.785706,610.151367 717.002441,610.885986 
z"/>
<path fill="#90C0FC" opacity="1.000000" stroke="none" 
	d="
M287.694855,540.498901 
	C288.047913,541.276917 288.139587,541.920654 288.231262,542.564392 
	C287.698547,542.343140 287.165802,542.121826 286.633057,541.900574 
	C286.899872,541.388550 287.166656,540.876587 287.694855,540.498901 
z"/>
<path fill="#85B6FC" opacity="1.000000" stroke="none" 
	d="
M703.856201,624.895386 
	C704.303589,624.180725 705.172546,623.493164 706.354614,622.719910 
	C705.871094,623.396973 705.074402,624.159729 703.856201,624.895386 
z"/>
<path fill="#85B6FC" opacity="1.000000" stroke="none" 
	d="
M711.444824,617.941650 
	C711.570496,617.385254 712.010986,616.775085 712.704590,616.025391 
	C712.558289,616.553162 712.159058,617.220520 711.444824,617.941650 
z"/>
<path fill="#85B6FC" opacity="1.000000" stroke="none" 
	d="
M707.033997,622.721924 
	C706.914734,622.463867 707.110535,622.091553 707.597900,621.567261 
	C707.709290,621.812744 707.529114,622.210205 707.033997,622.721924 
z"/>
<path fill="#FBCA2E" opacity="1.000000" stroke="none" 
	d="
M570.740967,564.399536 
	C570.714661,564.471741 570.518616,564.630310 570.162231,564.895142 
	C570.159302,564.794006 570.349060,564.622192 570.740967,564.399536 
z"/>
<path fill="#8CBCFC" opacity="1.000000" stroke="none" 
	d="
M347.483826,497.115295 
	C347.912292,509.742035 347.803741,522.473511 348.125946,535.194031 
	C348.195374,537.933350 349.819305,540.633362 350.953369,543.644165 
	C345.836334,544.222351 344.152496,540.733337 344.098358,536.382385 
	C344.041107,531.781006 344.743408,527.174561 344.999939,522.563904 
	C345.385406,515.635803 345.619812,508.699066 346.040192,501.773376 
	C346.133362,500.238464 346.734039,498.734375 347.483826,497.115295 
z"/>
<path fill="#95C5FC" opacity="1.000000" stroke="none" 
	d="
M612.854614,430.671448 
	C605.491943,433.800964 597.452698,434.746277 591.669800,440.744965 
	C590.100037,442.373322 588.070374,443.601257 586.130798,444.820526 
	C582.881104,446.863373 580.064453,446.532928 576.177246,445.074646 
	C572.081970,443.538239 566.853088,444.865417 562.137451,445.196960 
	C559.033142,445.415253 555.971985,446.194183 552.870361,446.521667 
	C550.027466,446.821838 547.114746,443.344604 547.754395,440.400879 
	C548.974365,434.786102 550.389954,429.213776 551.600586,423.597137 
	C551.823242,422.564117 551.460327,421.404907 551.050659,420.065796 
	C551.120911,418.131805 551.508301,416.435974 552.115906,414.283966 
	C552.401123,413.725586 552.544678,413.569092 552.517883,413.530334 
	C552.387085,413.341125 552.210938,413.183350 552.050781,413.014465 
	C553.382507,401.872681 553.092468,390.812317 547.897766,380.649231 
	C545.003967,374.987579 540.872314,369.958588 537.211548,364.326416 
	C539.122986,364.548462 541.445557,364.616455 543.055786,365.721954 
	C547.024170,368.446442 557.936646,369.060730 561.960327,366.410492 
	C567.992859,362.437103 573.979614,358.383392 580.157288,354.647430 
	C582.073486,353.488556 584.676758,353.518585 586.730652,352.520874 
	C589.114380,351.362885 591.179382,349.566711 593.497742,348.249969 
	C595.126404,347.324921 596.909607,346.248322 598.690857,346.111420 
	C601.620972,345.886230 604.605408,346.367493 607.853333,346.880798 
	C600.426025,350.821686 592.160583,353.594299 585.120239,358.228180 
	C572.674438,366.419861 566.379517,382.785156 568.022034,397.948090 
	C568.458923,401.981964 571.969299,402.809631 575.107361,402.876068 
	C585.253174,403.090851 595.407166,403.005951 605.556763,402.904266 
	C609.339539,402.866364 611.270203,400.367279 612.980042,397.191132 
	C617.643005,388.528931 625.937134,387.666931 634.505554,387.982635 
	C641.850098,388.253235 648.055176,391.096832 650.656311,398.358551 
	C654.763428,409.824677 652.034668,424.322876 633.270325,425.888763 
	C629.135315,426.233826 624.865112,425.550140 620.828857,426.284180 
	C618.065491,426.786713 615.599548,428.925018 612.854614,430.671448 
z"/>
<path fill="#95C5FC" opacity="1.000000" stroke="none" 
	d="
M336.716278,353.040588 
	C331.974915,357.934937 326.810211,362.820679 321.327209,367.788696 
	C320.983337,358.675507 323.446228,354.663147 329.456116,353.999756 
	C331.742798,353.747345 334.014435,353.358612 336.716278,353.040588 
z"/>
<path fill="#FEDA34" opacity="1.000000" stroke="none" 
	d="
M630.051636,566.537292 
	C645.081360,566.067505 660.085449,566.058105 675.560303,566.090088 
	C675.388184,577.187988 675.627075,588.385132 673.892151,599.267578 
	C671.404968,614.867981 663.033691,627.648499 650.780090,637.543396 
	C645.003784,642.207764 638.460571,645.931885 630.430298,647.004639 
	C630.035034,620.344421 630.030518,593.671082 630.051636,566.537292 
z"/>
<path fill="#8CBCFC" opacity="1.000000" stroke="none" 
	d="
M576.902100,618.432312 
	C559.369019,614.916382 548.142151,598.564453 549.405212,577.862976 
	C555.897156,577.862976 562.464783,577.862976 569.488281,577.953918 
	C569.210632,591.910522 571.931519,605.178284 576.902100,618.432312 
z"/>
<path fill="#8CBCFC" opacity="1.000000" stroke="none" 
	d="
M706.137146,602.027954 
	C701.053467,610.829529 694.277954,616.795227 685.182861,618.929199 
	C687.606079,605.307190 689.968689,592.025818 692.431824,578.179199 
	C697.683411,578.179199 704.056702,578.179199 710.804382,578.179199 
	C711.805115,586.572449 710.346924,594.362305 706.137146,602.027954 
z"/>
<path fill="#95C5FC" opacity="1.000000" stroke="none" 
	d="
M428.305786,371.814148 
	C420.240753,372.513977 417.189331,376.139557 415.961548,385.986023 
	C415.609406,388.810028 415.740021,391.850250 412.001129,393.208008 
	C406.948761,395.042725 400.589478,390.936981 399.877869,385.494659 
	C399.497498,382.585632 397.854980,379.841675 396.387878,377.011475 
	C395.968811,370.977661 395.943939,364.955627 395.950134,358.465942 
	C401.549377,358.243011 402.328766,363.221069 404.252502,366.773071 
	C406.776245,371.432922 408.784119,371.837677 413.402588,369.238434 
	C416.990540,367.219116 421.157501,365.707062 425.218201,365.214142 
	C428.471252,364.819275 430.153656,363.869568 431.592865,361.003876 
	C435.026093,354.167755 439.290588,352.242432 446.726196,353.887939 
	C440.913452,359.903564 434.743439,365.761719 428.305786,371.814148 
z"/>
<path fill="#92C2FC" opacity="1.000000" stroke="none" 
	d="
M552.014404,413.259094 
	C552.210938,413.183350 552.387085,413.341125 552.517883,413.530334 
	C552.544678,413.569092 552.401123,413.725586 552.173096,413.912598 
	C552.010132,413.997345 551.977966,413.503754 552.014404,413.259094 
z"/>
<path fill="#8CBCFC" opacity="1.000000" stroke="none" 
	d="
M395.962158,391.466431 
	C396.333282,395.689484 396.811462,400.375793 396.954681,405.072327 
	C397.059631,408.514404 396.725006,411.969910 396.287537,415.713501 
	C395.967743,407.983063 395.946686,399.958588 395.962158,391.466431 
z"/>
</svg>